<?xml version="1.0" standalone="no"?>
<!DOCTYPE svg PUBLIC "-//W3C//DTD SVG 20010904//EN"
 "http://www.w3.org/TR/2001/REC-SVG-20010904/DTD/svg10.dtd">
<svg version="1.0" xmlns="http://www.w3.org/2000/svg"
 width="500.000000pt" height="399.000000pt" viewBox="0 0 500.000000 399.000000"
 preserveAspectRatio="xMidYMid meet">

<g transform="translate(0.000000,399.000000) scale(0.100000,-0.100000)"
fill="#000000" stroke="none">
<path d="M0 1995 l0 -1995 2500 0 2500 0 0 1995 0 1995 -2500 0 -2500 0 0
-1995z m3829 1373 c-7 -13 -189 -342 -404 -733 -215 -390 -454 -824 -530 -963
-76 -139 -139 -251 -141 -250 -1 2 -30 144 -63 316 l-60 313 128 237 c71 130
158 296 194 369 l66 132 -25 45 -25 45 -72 -25 c-40 -13 -192 -72 -340 -131
l-267 -107 -73 18 c-155 39 -165 28 147 155 153 62 544 223 870 357 325 134
595 244 599 244 4 0 2 -10 -4 -22z m-1424 -799 c61 -17 113 -33 117 -37 4 -4
27 -114 52 -244 l46 -237 -137 -243 c-75 -134 -142 -252 -149 -262 -12 -17
-27 9 -147 251 -134 269 -134 269 -122 310 12 39 10 44 -34 129 -43 84 -48 89
-76 86 -27 -2 -32 3 -53 50 -12 28 -20 53 -17 56 7 8 389 171 400 171 6 1 60
-13 120 -30z m-527 -341 c43 -12 82 -25 88 -30 6 -4 19 -46 28 -92 l17 -84
-218 -395 c-120 -217 -221 -392 -224 -389 -4 4 -34 153 -68 332 -35 179 -66
328 -70 333 -4 4 -67 25 -140 45 l-133 38 314 131 c172 72 317 131 321 132 5
0 43 -9 85 -21z"/>
</g>
</svg>
